<?xml version="1.0" encoding="UTF-8" standalone="no"?>
<!-- Created with Inkscape (http://www.inkscape.org/) -->

<svg
   width="689.07788"
   height="199.96126"
   viewBox="0 0 182.31853 52.906417"
   version="1.1"
   id="svg5"
   sodipodi:docname="Swirl-wordmark-logo(transparent).svg"
   xmlns:inkscape="http://www.inkscape.org/namespaces/inkscape"
   xmlns:sodipodi="http://sodipodi.sourceforge.net/DTD/sodipodi-0.dtd"
   xmlns="http://www.w3.org/2000/svg"
   xmlns:svg="http://www.w3.org/2000/svg">
  <sodipodi:namedview
     id="namedview32"
     pagecolor="#ffffff"
     bordercolor="#000000"
     borderopacity="0.25"
     inkscape:showpageshadow="2"
     inkscape:pageopacity="0.0"
     inkscape:pagecheckerboard="0"
     inkscape:deskcolor="#d1d1d1"
     showgrid="false" />
  <defs
     id="defs2" />
  <g
     id="layer1"
     transform="translate(-14.674074,-79.380127)">
    <g
       aria-label="S"
       id="text2063"
       style="font-size:38.1px;line-height:1.25;stroke-width:0.264583"
       transform="translate(169.98653,-14.733984)">
      <g
         aria-label="S"
         id="text9256"
         style="font-size:202.87px;stroke-width:0.372748">
        <g
           aria-label="S"
           id="text16807"
           style="font-weight:bold;font-size:222.959px;-inkscape-font-specification:'sans-serif Bold';fill:none;fill-opacity:1;stroke-width:0.577136">
          <rect
             style="display:inline;fill:none;fill-opacity:1;stroke:none;stroke-width:1.71025;stroke-miterlimit:4;stroke-dasharray:none;stroke-opacity:1"
             id="rect23127"
             width="211.66667"
             height="211.66667"
             x="-169.98653"
             y="14.733983"
             ry="0.58821601" />
          <g
             aria-label="S"
             id="text37698"
             style="font-weight:normal;font-size:249.28px;fill:none;fill-opacity:1;stroke-width:0.999091" />
          <text
             xml:space="preserve"
             style="font-style:normal;font-weight:normal;font-size:10.5833px;line-height:1.25;font-family:sans-serif;fill:none;fill-opacity:1;stroke:none;stroke-width:0.152701"
             x="-135.77641"
             y="15.673946"
             id="text53531"><tspan
               id="tspan53529"
               style="fill:none;fill-opacity:1;stroke-width:0.152701"
               x="-135.77641"
               y="15.673946" /></text>
        </g>
        <g
           aria-label="Swirl"
           id="text60497"
           style="font-size:68.3611px;opacity:1;fill:#8e2de2;fill-opacity:1;stroke-width:0.529167;stroke-opacity:0.0293549"
           transform="translate(3.45e-5,-1.25e-5)">
          <path
             d="m -119.26269,97.785861 v 0 c 0,5.825449 -3.4581,8.867019 -8.01107,7.777409 -2.60359,-0.62308 -5.06255,-0.93462 -7.37686,-0.93462 -3.07091,0 -5.34071,0.42281 -6.8094,1.26842 -1.4687,0.84561 -2.20305,2.15853 -2.20305,3.93877 0,1.33518 0.48957,2.38107 1.4687,3.13767 1.00139,0.73435 2.80388,1.36856 5.40747,1.90263 l 5.47423,1.10152 c 5.54099,1.11265 9.47976,2.80387 11.81632,5.07367 2.33656,2.26981 3.50484,5.49649 3.50484,9.68004 0,5.49648 -1.63559,9.59103 -4.90677,12.28364 -3.24893,2.67035 -8.22247,4.00553 -14.92062,4.00553 -3.15992,0 -6.33097,-0.30042 -9.51314,-0.90125 -3.18217,-0.60083 -6.36435,-1.49094 -9.54652,-2.67035 0,-5.99136 3.92335,-8.56071 9.21273,-7.00968 2.98189,0.84561 5.85252,1.26842 8.61189,1.26842 2.80387,0 4.95129,-0.46731 6.44224,-1.40194 1.49095,-0.93463 2.23642,-2.2698 2.23642,-4.00553 0,-1.55771 -0.51182,-2.75937 -1.53545,-3.60498 -1.00139,-0.84561 -3.01528,-1.60222 -6.04168,-2.26981 l -4.97354,-1.10152 c -4.98467,-1.06814 -8.63415,-2.77049 -10.94846,-5.10705 -2.29205,-2.33656 -3.43808,-5.48536 -3.43808,-9.44639 0,-4.96241 1.60221,-8.77879 4.80664,-11.449144 3.20443,-2.670355 7.81079,-4.005533 13.81909,-4.005533 2.73711,0 5.55211,0.211403 8.445,0.634209 2.89289,0.400553 5.88591,1.01251 8.97907,1.835869 z"
             style="font-weight:bold;-inkscape-font-specification:'sans-serif Bold';fill:#8e2de2;fill-opacity:1"
             id="path85524" />
          <path
             d="m -108.58127,108.66756 h 5.31328 c 3.480922,0 6.982013,2.73887 7.819905,6.11745 l 4.780288,19.27521 5.145796,-20.78468 c 0.630062,-2.54492 3.266179,-4.60798 5.887933,-4.60798 2.890343,0 5.794637,2.28098 6.487021,5.09471 l 5.021663,20.40718 4.766906,-19.26939 c 0.851517,-3.44212 4.416308,-6.2325 7.962183,-6.2325 h 5.195672 l -9.846936,37.38498 h -13.051362 l -6.308715,-25.70218 -6.275335,25.70218 h -13.051362 z"
             style="font-weight:bold;-inkscape-font-specification:'sans-serif Bold';fill:#8e2de2;fill-opacity:1"
             id="path85526" />
          <path
             d="m -42.089417,108.66756 h 11.949841 v 37.38498 h -0.0057 c -6.596562,0 -11.944133,-5.34757 -11.944133,-11.94413 z m 0,-14.553437 h 2.203044 c 5.383007,0 9.746797,4.363746 9.746797,9.746797 h -11.949841 z"
             style="font-weight:bold;-inkscape-font-specification:'sans-serif Bold';fill:#8e2de2;fill-opacity:1"
             id="path85528" />
          <path
             d="m 5.3579057,116.09076 c -3.622727,0.19405 -7.6648588,2.21352 -9.5950376,4.29298 -1.6467191,1.95827 -4.0575787,4.77327 -4.0575787,8.445 v 13.08485 a 4.138954,4.138954 135 0 1 -4.1389544,4.13895 h -6.223386 v -37.38498 h 3.666389 a 6.4248626,6.4248626 42.528411 0 1 6.6959514,6.14182 c 4.8041989,-4.46009 11.4830045,-5.91364 17.3759765,-5.18849 l 0.015302,3.25977 c 0.00998,2.12683 -1.636912,3.09753 -3.7386622,3.2101 z"
             style="font-weight:bold;-inkscape-font-specification:'sans-serif Bold';fill:#8e2de2;fill-opacity:1"
             id="path85530" />
          <path
             d="m 15.05619,94.114123 h 0.132729 c 6.526411,0 11.817112,5.290701 11.817112,11.817117 v 40.1213 h -0.09993 c -6.544527,0 -11.849914,-5.30539 -11.849914,-11.84991 z"
             style="font-weight:bold;-inkscape-font-specification:'sans-serif Bold';fill:#8e2de2;fill-opacity:1"
             id="path85532" />
        </g>
        <text
           xml:space="preserve"
           style="font-style:normal;font-weight:normal;font-size:10.5833px;line-height:1.25;font-family:sans-serif;fill:#000000;fill-opacity:1;stroke:none;stroke-width:0.0986229"
           x="-112.52027"
           y="117.97109"
           id="text68783"><tspan
             id="tspan68781"
             style="stroke-width:0.0986229"
             x="-112.52027"
             y="117.97109" /></text>
      </g>
    </g>
  </g>
</svg>
